<?xml version="1.0" standalone="no"?>
<!DOCTYPE svg PUBLIC "-//W3C//DTD SVG 20010904//EN"
 "http://www.w3.org/TR/2001/REC-SVG-20010904/DTD/svg10.dtd">
<svg version="1.0" xmlns="http://www.w3.org/2000/svg"
 width="1346.000000pt" height="898.000000pt" viewBox="0 0 1346.000000 898.000000"
 preserveAspectRatio="xMidYMid meet">
<metadata>
Created by potrace 1.15, written by Peter Selinger 2001-2017
</metadata>
<g transform="translate(0.000000,898.000000) scale(0.100000,-0.100000)"
fill="#000000" stroke="none">
<path d="M0 4490 l0 -4490 6730 0 6730 0 0 4490 0 4490 -6730 0 -6730 0 0
-4490z m7060 2365 c291 -44 490 -108 758 -241 l192 -96 31 26 c37 31 49 33 42
6 -7 -26 16 -53 39 -47 21 6 23 10 -50 -98 -53 -81 -75 -149 -80 -258 -4 -100
3 -145 39 -242 l20 -55 60 0 60 0 -22 31 c-55 77 -79 224 -55 333 46 205 233
346 459 346 38 0 67 -4 65 -9 -1 -5 -52 -62 -112 -127 -117 -128 -133 -153
-114 -187 19 -37 230 -248 277 -278 73 -47 97 -40 291 80 63 39 120 71 126 71
27 0 35 -175 10 -234 -21 -51 -79 -119 -137 -162 l-49 -36 0 -199 c0 -126 4
-199 10 -199 6 0 10 -4 10 -10 0 -6 -33 -10 -80 -10 -76 0 -103 11 -60 25 19
6 20 15 20 180 0 157 -2 174 -17 179 -10 3 -65 12 -123 21 -58 9 -113 18 -122
20 -17 3 -18 -11 -18 -190 0 -185 1 -194 20 -200 38 -12 20 -25 -34 -25 -30 0
-60 2 -68 5 -10 4 -12 39 -10 166 l3 160 -43 39 c-24 22 -47 39 -51 40 -5 0
-7 -90 -5 -200 l3 -200 -45 0 -45 0 0 72 c0 40 -1 134 -3 209 l-2 137 -32 13
c-47 19 -238 17 -238 -3 0 -5 -4 -7 -9 -4 -9 6 -21 -161 -21 -311 l0 -103 -47
0 -48 0 3 390 3 390 -98 0 c-55 0 -92 -4 -85 -9 10 -6 10 -10 -3 -21 -12 -10
-15 -10 -15 1 0 12 -2 12 -9 1 -4 -8 -12 -14 -17 -14 -26 -2 -55 -24 -60 -47
-3 -14 -7 -31 -9 -37 -2 -7 -5 -157 -6 -334 l-2 -322 -56 6 c-56 7 -76 15 -53
23 9 3 12 40 12 137 l0 133 -34 10 c-27 8 -41 8 -61 -3 -15 -8 -31 -11 -36 -8
-5 3 -9 1 -9 -4 0 -5 -6 -9 -12 -9 -7 -1 -33 -4 -58 -8 -25 -4 -52 -8 -62 -8
-13 -1 -17 -19 -23 -108 -4 -59 -4 -116 0 -128 6 -19 3 -21 -42 -21 l-48 0 3
88 4 89 -44 26 c-73 43 -147 134 -80 98 12 -6 43 -11 71 -11 l51 0 0 50 c0 48
-1 50 -27 50 -30 0 -115 37 -148 64 -20 17 -20 17 3 12 12 -4 31 -8 41 -11 25
-7 35 9 16 25 -27 22 -16 31 30 26 24 -3 47 -1 50 4 3 6 2 10 -4 10 -5 0 -22
11 -38 24 -15 13 -44 28 -64 35 -19 6 -53 29 -74 51 -40 41 -43 60 -7 41 12
-6 31 -11 43 -11 22 0 21 2 -11 30 l-35 29 38 1 c26 0 37 4 37 15 0 8 -8 15
-18 15 -22 0 -101 49 -122 75 -16 20 -17 20 35 -1 8 -3 15 -2 15 4 0 5 -7 12
-15 16 -14 5 -55 63 -55 78 0 4 14 5 30 2 17 -4 30 -4 30 -2 0 2 -19 25 -43
49 -27 29 -52 69 -66 108 -13 34 -25 60 -27 58 -3 -2 -11 -30 -20 -62 -22 -85
-55 -152 -81 -164 -13 -6 -23 -15 -23 -21 0 -13 6 -13 31 0 33 18 22 -7 -23
-50 l-42 -40 32 0 c32 0 32 0 19 -32 -14 -35 -15 -36 -105 -74 -69 -30 -67
-47 3 -38 l40 5 -25 -21 -24 -22 37 7 c20 4 37 5 37 1 0 -16 -91 -88 -130
-102 -25 -10 -56 -28 -70 -41 l-25 -23 56 0 c31 0 70 5 88 11 41 14 46 8 27
-29 -26 -50 -94 -98 -173 -122 -100 -30 -96 -44 14 -57 l56 -6 -44 -23 c-52
-27 -71 -30 -63 -9 5 12 -3 15 -37 15 -27 0 -57 9 -86 25 -49 29 -55 40 -18
33 26 -6 43 6 25 17 -20 13 -9 24 27 27 l37 3 -66 34 c-37 18 -75 43 -85 54
-18 19 -17 19 15 12 39 -8 40 -1 5 30 l-28 24 38 1 c26 0 37 4 37 15 0 9 -9
15 -25 15 -15 0 -41 14 -63 35 -28 27 -33 35 -19 35 17 0 17 2 -2 26 -27 35
-26 44 4 44 24 0 24 1 -14 39 -21 21 -48 63 -59 92 -19 49 -21 51 -23 24 -1
-16 -1 -48 -1 -70 1 -32 0 -36 -7 -20 -9 19 -10 19 -10 -4 -1 -14 -17 -38 -43
-62 -35 -31 -39 -37 -19 -32 21 5 22 4 12 -15 -6 -12 -21 -28 -33 -36 l-22
-16 27 0 c36 0 34 -9 -13 -55 -22 -21 -40 -36 -40 -32 0 4 -15 0 -32 -10 l-33
-18 45 -5 c41 -5 43 -6 25 -18 -19 -12 -18 -13 8 -7 15 3 27 2 27 -3 0 -13
-41 -48 -80 -67 -19 -10 -45 -26 -56 -37 -20 -18 -24 -18 -51 -4 -36 18 -62
46 -43 46 9 0 10 3 1 14 -9 11 -7 15 11 20 22 5 21 7 -12 23 -19 10 -35 26
-35 35 0 9 -4 20 -8 24 -12 13 -8 24 10 24 16 0 16 1 0 13 -9 6 -26 30 -36 52
-15 30 -20 34 -21 19 0 -31 -29 -96 -49 -111 -9 -7 -11 -13 -5 -13 24 0 5 -44
-31 -72 -37 -27 -38 -29 -17 -35 30 -7 28 -29 -4 -50 -25 -16 -27 -16 -45 8
-10 13 -16 30 -14 37 3 8 -4 25 -15 39 l-20 26 -11 -32 c-6 -17 -15 -31 -20
-31 -5 0 -7 -11 -3 -24 5 -20 0 -27 -23 -39 l-28 -16 24 -9 24 -9 -24 -16
c-31 -22 -52 -21 -75 4 -14 16 -16 22 -5 28 11 7 9 13 -8 30 -12 12 -19 26
-16 31 4 6 -3 22 -14 36 l-20 25 -14 -33 c-8 -18 -19 -45 -25 -60 -7 -16 -17
-28 -23 -28 -8 0 -7 -5 2 -16 11 -14 10 -19 -9 -34 -29 -24 -28 -30 5 -30 24
0 26 -2 13 -15 -9 -8 -30 -17 -48 -21 -27 -6 -31 -4 -26 10 3 9 1 16 -5 16 -6
0 -11 6 -11 13 0 6 -7 25 -15 40 -14 28 -13 32 38 115 179 299 455 558 777
731 197 105 508 197 744 220 456 45 912 -57 1290 -288 38 -23 70 -40 71 -39 9
10 57 137 58 153 2 16 -31 36 -178 110 -343 172 -647 244 -1025 245 -194 0
-284 -9 -470 -46 -699 -140 -1307 -637 -1560 -1277 -55 -141 -59 -163 -30
-172 45 -14 15 -25 -71 -25 -82 0 -89 1 -75 16 9 8 19 27 22 42 4 15 26 78 50
140 239 622 755 1099 1417 1311 154 49 381 94 537 105 106 7 396 -4 500 -19z
m-1265 -1295 c-44 -46 -85 -56 -134 -30 -39 19 -57 38 -26 26 10 -3 15 1 15
13 0 15 9 18 60 19 33 0 68 5 77 11 33 18 39 -7 8 -39z m-368 -12 c1 -10 -2
-18 -8 -18 -5 0 -9 5 -9 10 0 6 -6 10 -14 10 -8 0 -18 5 -21 10 -4 6 5 10 22
8 20 -1 29 -8 30 -20z m-169 -60 c-7 -19 -31 -21 -53 -4 -19 15 -18 15 18 16
27 0 37 -4 35 -12z m-347 -42 c-6 -14 -15 -26 -21 -26 -14 0 -13 7 6 36 21 31
28 26 15 -10z m1376 11 c40 -1 73 -4 73 -7 0 -10 -98 -60 -117 -60 -20 0 -93
56 -93 71 0 6 14 7 33 4 17 -3 65 -7 104 -8z m-557 -7 c0 -19 -51 -23 -68 -6
-15 15 -13 16 26 16 23 0 42 -4 42 -10z m356 -90 c17 -47 36 -97 42 -112 8
-19 8 -28 1 -28 -6 0 -8 -4 -5 -9 9 -14 -129 -8 -146 6 -8 7 -18 9 -23 5 -13
-12 36 172 57 211 19 36 42 14 74 -73z m54 80 c0 -5 -2 -10 -4 -10 -3 0 -8 5
-11 10 -3 6 -1 10 4 10 6 0 11 -4 11 -10z m-1105 -30 c3 -5 -1 -10 -9 -10 -8
0 -18 5 -21 10 -3 6 1 10 9 10 8 0 18 -4 21 -10z m-135 -9 c0 -12 -20 -25 -27
-18 -7 7 6 27 18 27 5 0 9 -4 9 -9z m-10 -51 c0 -5 -5 -10 -11 -10 -5 0 -7 5
-4 10 3 6 8 10 11 10 2 0 4 -4 4 -10z m851 -268 c17 -19 8 -35 -22 -40 -15 -2
-22 19 -13 46 5 17 17 15 35 -6z m199 -8 c0 -38 -127 -164 -165 -164 -18 0 4
31 71 96 68 66 94 85 94 68z m-40 -197 c0 -30 -63 -160 -101 -208 -17 -22 -29
-39 -26 -39 15 0 78 33 114 59 52 38 57 38 48 4 -8 -35 -65 -94 -127 -134 -46
-30 -66 -59 -53 -78 3 -6 28 -2 61 11 30 11 57 18 60 15 13 -13 -11 -52 -78
-125 -38 -42 -87 -96 -108 -119 -51 -56 -129 -94 -206 -101 -36 -2 -64 0 -67
5 -4 6 28 31 71 56 133 77 234 185 216 231 -8 20 -20 20 -74 1 -54 -19 -94
-19 -109 -1 -20 24 13 61 104 116 119 72 194 161 156 185 -5 3 -31 -8 -57 -25
-51 -32 -94 -39 -94 -16 0 27 220 186 257 186 7 0 13 -10 13 -23z m380 -82
c16 -8 25 -22 25 -38 1 -22 -2 -24 -21 -15 -18 8 -44 46 -44 63 0 8 14 5 40
-10z m50 -228 c31 -22 50 -67 27 -67 -13 0 -77 66 -77 79 0 16 12 13 50 -12z
m108 -255 c12 -8 7 -42 -6 -42 -9 0 -42 32 -42 42 0 10 31 10 48 0z m-475 -89
c5 -3 7 -62 4 -131 -4 -107 -7 -127 -23 -139 -13 -10 -64 -13 -201 -13 -153 0
-188 3 -217 18 -20 9 -36 19 -36 22 0 3 25 18 56 34 42 22 66 45 101 94 37 51
58 70 100 89 80 37 178 48 216 26z m195 -18 c92 -19 109 -31 162 -106 46 -66
74 -88 122 -98 43 -9 44 -22 5 -48 -30 -21 -45 -23 -169 -23 -175 0 -179 3
-184 116 -2 43 -6 100 -9 127 -3 26 -4 47 -3 47 2 0 36 -7 76 -15z m-397 -545
c11 -6 19 -21 19 -35 0 -32 -26 -45 -89 -45 l-51 0 0 45 0 45 51 0 c28 0 59
-5 70 -10z m451 -7 c45 -40 8 -76 -75 -71 -49 3 -52 5 -55 31 -6 49 3 57 59
57 35 0 59 -6 71 -17z m1606 5 c18 -18 14 -56 -7 -68 -11 -5 -42 -10 -70 -10
l-51 0 0 45 0 45 58 0 c32 0 63 -5 70 -12z m661 -105 c1 -9 -15 -13 -49 -13
-27 0 -50 4 -50 9 0 12 37 95 47 105 8 7 51 -76 52 -101z m-72 -233 c3 -11 9
-20 14 -20 5 0 9 -6 9 -13 0 -9 11 -13 30 -12 17 1 30 -1 30 -4 0 -4 13 -8 29
-9 17 -1 40 -6 53 -11 27 -10 29 -9 -342 -82 -140 -27 -390 -76 -555 -108
-437 -86 -477 -93 -510 -87 -16 4 -82 13 -145 21 -63 9 -122 17 -130 18 -36 6
42 37 155 61 83 18 102 24 60 20 -33 -3 -103 -15 -155 -27 -124 -27 -256 -32
-367 -14 -48 9 -134 21 -190 28 -57 7 -103 16 -103 21 0 15 167 48 370 73 121
15 278 42 253 44 -22 2 23 39 53 45 16 3 173 8 349 11 176 3 327 7 335 8 36 4
126 -17 136 -32 10 -13 19 -14 52 -5 23 6 46 8 51 4 6 -3 -42 -17 -106 -30
-149 -31 -123 -38 39 -11 68 11 173 28 235 37 62 10 110 21 108 24 -2 4 10 4
27 2 20 -3 29 -1 24 6 -3 6 0 13 6 15 7 3 3 6 -9 6 -12 1 -24 5 -27 10 -3 5
40 13 97 18 56 6 106 11 110 12 5 0 11 -8 14 -19z m-2936 -20 c168 -10 316
-23 329 -28 l25 -9 -25 -8 c-14 -5 -32 -10 -40 -11 -8 -1 -44 -10 -79 -20 -55
-15 -78 -16 -170 -6 -138 14 -385 45 -390 49 -3 2 4 10 15 18 17 13 17 14 2
15 -10 0 -18 5 -18 10 0 13 -8 13 351 -10z m2359 -14 c0 -3 -4 -8 -10 -11 -5
-3 -10 -1 -10 4 0 6 5 11 10 11 6 0 10 -2 10 -4z m-1002 -22 c51 -3 92 -10 92
-16 0 -6 -7 -7 -16 -4 -8 3 -24 1 -35 -5 -11 -6 -100 -23 -197 -40 -97 -16
-242 -40 -322 -54 l-145 -25 -240 25 c-259 28 -285 32 -285 46 0 15 44 28 125
35 47 4 71 10 63 15 -9 6 -6 9 10 9 14 0 21 4 17 11 -4 6 -14 8 -22 5 -8 -3
-12 -2 -9 2 5 8 822 5 964 -4z m-1945 -147 c31 -3 56 -12 71 -26 12 -11 27
-21 33 -21 6 0 40 -24 75 -53 299 -252 565 -403 908 -515 237 -78 437 -111
710 -119 249 -7 388 5 605 53 256 57 429 120 666 245 94 49 177 89 186 89 8 0
27 9 43 20 15 11 52 26 83 34 58 15 104 36 149 68 15 10 44 25 65 34 l38 14
-35 -31 c-407 -361 -902 -585 -1445 -650 -133 -16 -508 -16 -610 0 -454 72
-809 207 -1145 433 -179 121 -440 350 -509 446 l-22 31 44 -24 c24 -14 64 -26
90 -28z m672 44 c52 -5 60 -9 63 -28 4 -27 5 -27 -95 -8 -43 8 -91 15 -108 14
-30 -1 -30 -1 -5 -9 14 -5 64 -14 113 -20 48 -7 89 -15 92 -19 2 -4 -35 -2
-83 6 -48 7 -130 13 -182 13 -105 0 -250 19 -250 32 0 11 20 10 124 -8 83 -14
94 -14 126 1 l35 16 -50 -5 c-27 -3 -84 1 -125 8 l-75 13 180 1 c99 0 207 -3
240 -7z m275 -51 c58 -10 162 -21 232 -24 69 -3 133 -9 142 -12 10 -4 16 -18
16 -40 l0 -34 -87 5 -88 5 84 -20 c46 -11 86 -22 89 -25 15 -15 -16 -16 -85
-2 -43 9 -109 23 -148 31 -38 8 -123 20 -187 27 -91 9 -118 16 -118 27 0 12
14 13 83 8 45 -4 109 -9 142 -12 115 -9 25 15 -105 29 l-125 12 -3 29 c-3 27
-2 28 25 22 15 -4 75 -15 133 -26z m-347 -52 c45 -10 65 -23 53 -35 -5 -5
-132 12 -256 34 -33 6 -34 6 -10 13 32 8 151 2 213 -12z m930 -39 c40 -21 47
-17 20 13 -22 25 -2 23 25 -2 39 -36 29 -50 -37 -50 -32 0 -79 3 -105 6 -40 6
-46 10 -46 30 0 16 6 24 17 24 13 0 14 3 5 12 -35 35 13 22 121 -33z m285 -14
c27 -12 41 -23 38 -32 -4 -10 6 -13 39 -13 25 0 45 -4 45 -10 0 -12 1 -12
-125 -15 -55 -2 -140 -7 -190 -12 -134 -15 -234 2 -235 40 0 4 45 4 100 1
l101 -7 28 34 29 34 47 -13 c52 -14 64 -10 46 12 -10 12 -9 13 11 7 13 -4 42
-16 66 -26z m-598 -65 c58 -11 108 -20 113 -20 11 0 9 -38 -3 -45 -5 -3 -22 1
-37 8 -51 26 -282 85 -398 101 -69 10 -95 17 -95 26 0 6 160 -20 420 -70z
m850 24 l40 -27 0 -98 c0 -84 -2 -99 -16 -99 -11 0 -14 5 -10 16 7 18 -19 155
-34 184 -10 19 -40 46 -40 36 0 -4 7 -18 16 -32 19 -28 44 -124 44 -167 0 -26
-2 -28 -37 -25 l-38 3 -3 73 c-3 63 -1 72 14 72 17 0 17 1 1 13 -14 10 -17 41
-8 75 3 9 38 -2 71 -24z m-1115 -10 c108 -17 218 -52 209 -66 -7 -11 -92 -2
-109 12 -13 9 -164 49 -210 55 -47 6 -37 -11 12 -20 21 -4 32 -10 26 -12 -23
-8 -83 18 -83 36 0 20 4 20 155 -5z m1205 -26 c0 12 5 22 10 22 11 0 13 -12
10 -50 -1 -17 2 -22 8 -15 6 6 12 26 14 45 3 33 4 34 15 13 9 -14 10 -30 4
-50 -5 -15 -17 -58 -26 -95 -17 -65 -18 -68 -44 -62 -14 4 -27 7 -28 8 -1 1 2
18 6 39 6 25 6 35 -2 30 -7 -4 -8 5 -4 27 4 18 7 53 8 79 l1 46 13 -30 c13
-27 14 -27 15 -7z m139 -20 c1 -4 -8 -10 -19 -13 -11 -4 -27 -20 -36 -37 -20
-38 -27 -32 -14 13 6 18 10 47 10 62 l0 29 29 -24 c17 -13 30 -26 30 -30z m51
26 c15 -38 13 -137 -2 -132 -7 3 -14 22 -16 44 -2 21 -8 43 -13 49 -5 5 -9 22
-9 37 0 36 27 38 40 2z m-1773 -10 c-3 -3 -12 -4 -19 -1 -8 3 -5 6 6 6 11 1
17 -2 13 -5z m46 -11 c-7 -2 -19 -2 -25 0 -7 3 -2 5 12 5 14 0 19 -2 13 -5z
m1286 -20 c18 -8 31 -16 28 -19 -10 -10 -73 8 -97 27 l-25 20 30 -7 c17 -4 45
-14 64 -21z m-1081 -8 c158 -28 186 -34 179 -42 -4 -4 -189 29 -322 56 -89 19
6 9 143 -14z m741 0 c40 -13 98 -38 128 -55 59 -32 77 -32 50 -2 -17 18 -24
62 -10 62 4 0 17 -10 30 -22 29 -27 40 -18 18 16 -29 44 11 27 88 -37 51 -43
78 -45 31 -2 -16 15 -22 24 -14 21 8 -3 23 -9 33 -12 12 -5 17 -17 17 -47 l0
-40 -72 7 c-81 7 -159 18 -293 41 -89 16 -118 25 -77 25 12 0 22 5 22 10 0 6
12 8 28 4 l27 -5 -24 20 c-13 12 -29 21 -37 21 -7 0 -16 5 -19 10 -8 13 -9 14
74 -15z m80 9 c22 -8 42 -22 45 -29 4 -11 -5 -10 -37 4 -23 11 -53 24 -67 29
-24 10 -24 11 -3 11 13 1 40 -6 62 -15z m661 -34 c0 -10 -4 -22 -10 -25 -15
-9 -12 -27 3 -19 6 4 3 -2 -7 -14 -11 -12 -16 -25 -12 -29 4 -4 11 -1 16 7 6
8 10 10 10 4 0 -12 -28 -40 -34 -33 -2 2 -8 13 -13 23 -10 18 -12 17 -27 -12
-9 -18 -24 -32 -32 -32 -13 0 -9 12 16 58 52 93 90 123 90 72z m-875 -18 c-3
-3 -11 0 -18 7 -9 10 -8 11 6 5 10 -3 15 -9 12 -12z m-851 -8 c3 -8 2 -12 -4
-9 -6 3 -10 10 -10 16 0 14 7 11 14 -7z m209 -4 c124 -21 197 -45 197 -65 0
-10 -17 -9 -82 1 -46 8 -113 18 -149 23 -77 10 -119 28 -98 42 19 12 2 11 -20
0 -13 -7 -18 -6 -18 5 0 19 31 18 170 -6z m449 -10 c84 -12 205 -30 268 -40
63 -11 189 -29 279 -40 90 -11 218 -29 285 -40 66 -11 139 -20 161 -20 70 0
68 -15 -3 -33 l-67 -17 3 -75 4 -75 -54 21 c-29 12 -98 34 -154 49 -103 28
-285 90 -332 112 -34 17 -33 31 4 39 22 5 24 7 7 8 -33 2 -36 18 -6 29 16 6
21 11 13 11 -8 0 -28 -6 -45 -13 -21 -9 -43 -10 -75 -3 -25 5 -70 10 -100 12
-59 3 -349 72 -364 86 -14 13 4 12 176 -11z m-47 -45 c66 -20 158 -46 205 -59
127 -36 170 -55 170 -76 0 -16 -4 -17 -37 -8 -21 6 -54 16 -73 23 -45 18 -341
85 -371 85 -27 0 -57 16 -47 25 3 3 27 1 52 -6 67 -17 68 -4 2 15 -54 16 -75
36 -38 36 10 0 72 -16 137 -35z m1131 -42 c-10 -10 -19 5 -10 18 6 11 8 11 12
0 2 -7 1 -15 -2 -18z m-1424 -14 c51 -12 89 -26 92 -35 8 -20 -22 -18 -129 10
-87 22 -135 41 -135 52 0 7 64 -3 172 -27z m1395 5 c-3 -3 -12 -4 -19 -1 -8 3
-5 6 6 6 11 1 17 -2 13 -5z m-1130 -73 c17 -9 17 -10 -1 -17 -28 -11 -110 8
-114 27 -3 14 4 15 47 8 28 -4 58 -12 68 -18z m316 -17 c68 -21 87 -31 87 -45
0 -18 -2 -18 -52 2 -29 12 -63 25 -75 29 -11 5 -24 14 -28 20 -3 5 -10 8 -15
5 -4 -3 -13 2 -20 10 -10 13 -10 15 1 11 8 -2 53 -16 102 -32z m-149 -9 c38
-13 79 -33 91 -45 12 -11 26 -20 31 -19 28 5 83 -3 99 -14 16 -13 15 -14 -15
-9 -23 3 -31 1 -26 -7 9 -14 4 -14 -41 3 -59 22 -201 66 -212 66 -28 0 -60 20
-55 35 9 21 48 18 128 -10z m516 -78 c58 -29 108 -53 112 -55 3 -2 4 7 1 19
-5 19 0 17 48 -16 30 -20 56 -39 59 -42 3 -3 -27 -3 -66 0 -45 4 -106 18 -165
41 -52 19 -124 42 -161 51 l-66 17 -4 39 c-2 22 -2 41 -1 43 7 7 142 -48 243
-97z m-555 23 l20 -9 -20 0 c-11 0 -29 4 -40 9 l-20 9 20 0 c11 0 29 -4 40 -9z
m364 -88 c-33 -6 -49 5 -49 33 l0 26 35 -28 c32 -25 33 -28 14 -31z m121 14
l55 -26 -42 4 c-22 2 -65 16 -95 30 l-53 26 40 -4 c22 -2 65 -16 95 -30z m345
-16 c22 -10 33 -19 25 -19 -24 -1 -89 19 -95 29 -10 16 26 10 70 -10z"/>
<path d="M7703 3253 c15 -2 25 -9 21 -14 -3 -5 -10 -7 -15 -4 -5 4 -9 2 -9 -4
0 -6 15 -7 38 -4 45 7 54 13 21 13 -19 0 -21 2 -9 10 11 7 2 9 -30 8 -30 -1
-36 -2 -17 -5z"/>
<path d="M7638 3183 c7 -3 16 -2 19 1 4 3 -2 6 -13 5 -11 0 -14 -3 -6 -6z"/>
<path d="M7408 3143 c7 -3 16 -2 19 1 4 3 -2 6 -13 5 -11 0 -14 -3 -6 -6z"/>
<path d="M7343 3133 c9 -2 23 -2 30 0 6 3 -1 5 -18 5 -16 0 -22 -2 -12 -5z"/>
<path d="M7288 3123 c6 -2 18 -2 25 0 6 3 1 5 -13 5 -14 0 -19 -2 -12 -5z"/>
<path d="M7238 3113 c6 -2 18 -2 25 0 6 3 1 5 -13 5 -14 0 -19 -2 -12 -5z"/>
<path d="M7188 3103 c7 -3 16 -2 19 1 4 3 -2 6 -13 5 -11 0 -14 -3 -6 -6z"/>
<path d="M6921 2774 c0 -11 3 -14 6 -6 3 7 2 16 -1 19 -3 4 -6 -2 -5 -13z"/>
<path d="M6558 2693 c7 -3 16 -2 19 1 4 3 -2 6 -13 5 -11 0 -14 -3 -6 -6z"/>
<path d="M6700 2654 c35 -14 85 -29 110 -34 25 -5 84 -22 132 -38 48 -16 89
-28 91 -25 2 2 -3 19 -11 38 -17 37 -6 33 -172 55 -47 6 -104 15 -128 20 -77
18 -89 9 -22 -16z m280 -55 c19 -10 28 -18 20 -18 -18 -1 -100 36 -100 44 0 9
38 -4 80 -26z"/>
</g>
</svg>
